<?xml version="1.0" encoding="utf-8"?>
<!-- Generator: Adobe Illustrator 22.1.0, SVG Export Plug-In . SVG Version: 6.00 Build 0)  -->
<svg version="1.1" id="Layer_1" xmlns="http://www.w3.org/2000/svg" xmlns:xlink="http://www.w3.org/1999/xlink" x="0px" y="0px"
	 viewBox="0 0 402 570" style="enable-background:new 0 0 402 570;" xml:space="preserve">
<style type="text/css">
	.st0{fill:none;stroke:#A7A7A7;stroke-width:16;stroke-miterlimit:10;}
	.st1{fill:none;stroke:#005290;stroke-width:16;stroke-miterlimit:10;}
</style>
<g>
	<path class="st0" d="M381.5,274.7h-361c-6.6,0-12-5.4-12-12V21.3c0-6.6,5.4-12,12-12h361c6.6,0,12,5.4,12,12v241.3
		C393.5,269.3,388.1,274.7,381.5,274.7z"/>
	<path class="st0" d="M135.1,120h-36c-6.6,0-12-5.4-12-12V90.6c0-6.6,5.4-12,12-12h36c6.6,0,12,5.4,12,12V108
		C147.1,114.6,141.7,120,135.1,120z"/>
	<line class="st0" x1="222.6" y1="99.3" x2="335.1" y2="99.3"/>
	<line class="st0" x1="60.8" y1="215.6" x2="173.3" y2="215.6"/>
	<line class="st0" x1="211.8" y1="215.6" x2="252" y2="215.6"/>
	<line class="st0" x1="60.8" y1="174" x2="101" y2="174"/>
	<line class="st0" x1="133.2" y1="174" x2="173.3" y2="174"/>
	<line class="st0" x1="211.3" y1="174" x2="251.5" y2="174"/>
	<line class="st0" x1="283.7" y1="174" x2="323.8" y2="174"/>
</g>
<g>
	<path class="st1" d="M381.5,561.1h-361c-6.6,0-12-5.4-12-12V307.7c0-6.6,5.4-12,12-12h361c6.6,0,12,5.4,12,12V549
		C393.5,555.7,388.1,561.1,381.5,561.1z"/>
	<path class="st1" d="M135.1,406.4h-36c-6.6,0-12-5.4-12-12V377c0-6.6,5.4-12,12-12h36c6.6,0,12,5.4,12,12v17.4
		C147.1,401,141.7,406.4,135.1,406.4z"/>
	<line class="st1" x1="222.6" y1="385.7" x2="335.1" y2="385.7"/>
	<line class="st1" x1="60.8" y1="502" x2="173.3" y2="502"/>
	<line class="st1" x1="211.8" y1="502" x2="252" y2="502"/>
	<line class="st1" x1="60.8" y1="460.4" x2="101" y2="460.4"/>
	<line class="st1" x1="133.2" y1="460.4" x2="173.3" y2="460.4"/>
	<line class="st1" x1="211.3" y1="460.4" x2="251.5" y2="460.4"/>
	<line class="st1" x1="283.7" y1="460.4" x2="323.8" y2="460.4"/>
</g>
</svg>
