<?xml version="1.0" encoding="utf-8"?>
<!-- Generator: Adobe Illustrator 22.1.0, SVG Export Plug-In . SVG Version: 6.00 Build 0)  -->
<svg version="1.1" id="Layer_1" xmlns="http://www.w3.org/2000/svg" xmlns:xlink="http://www.w3.org/1999/xlink" x="0px" y="0px"
	 viewBox="0 0 402 570" style="enable-background:new 0 0 402 570;" xml:space="preserve">
<style type="text/css">
	.st0{fill:none;stroke:#A7A7A7;stroke-width:16;stroke-miterlimit:10;}
	.st1{fill:none;stroke:#005290;stroke-width:16;stroke-miterlimit:10;}
</style>
<g>
	<path class="st0" d="M381.5,274.7h-361c-6.6,0-12-5.4-12-12V21.3c0-6.6,5.4-12,12-12h361c6.6,0,12,5.4,12,12v241.3
		C393.5,269.3,388.1,274.7,381.5,274.7z"/>
	<polyline class="st0" points="8.5,12.8 201,162 395.6,12.8 	"/>
	<line class="st0" x1="12.3" y1="271.3" x2="153.8" y2="120.3"/>
	<line class="st0" x1="393.5" y1="271.3" x2="252" y2="120.3"/>
</g>
<g>
	<path class="st1" d="M381.5,561.4h-361c-6.6,0-12-5.4-12-12V308c0-6.6,5.4-12,12-12h361c6.6,0,12,5.4,12,12v241.3
		C393.5,556,388.1,561.4,381.5,561.4z"/>
	<polyline class="st1" points="8.5,299.5 201,448.7 395.6,299.5 	"/>
	<line class="st1" x1="12.3" y1="558" x2="153.8" y2="407"/>
	<line class="st1" x1="393.5" y1="558" x2="252" y2="407"/>
</g>
</svg>
