<?xml version="1.0" encoding="utf-8"?>
<!-- Generator: Adobe Illustrator 22.1.0, SVG Export Plug-In . SVG Version: 6.00 Build 0)  -->
<svg version="1.1" id="Layer_1" xmlns="http://www.w3.org/2000/svg" xmlns:xlink="http://www.w3.org/1999/xlink" x="0px" y="0px"
	 viewBox="0 0 437 864" style="enable-background:new 0 0 437 864;" xml:space="preserve">
<style type="text/css">
	.st0{fill:#CCCCCC;}
	.st1{fill:#A7A7A7;}
	.st2{fill:#919191;}
	.st3{fill:#009ADE;}
	.st4{fill:#002F87;}
	.st5{fill:#002169;}
</style>
<g>
	<g>
		<g>
			<g>
				<g>
					<path class="st0" d="M294.1,315.2h-33.9c-2.3,0-4.3,1.7-4.7,4l-13.7,86.9c-0.3,1.7,1.1,3.3,2.8,3.3H262c1.6,0,3-1.2,3.3-2.8
						l3.9-24.6c0.4-2.3,2.3-4,4.7-4h10.7c22.3,0,35.2-10.8,38.6-32.2c1.5-9.4,0.1-16.7-4.3-21.9
						C313.9,318.2,305.4,315.2,294.1,315.2z M298,347c-1.9,12.2-11.1,12.2-20.1,12.2h-5.1l3.6-22.7c0.2-1.4,1.4-2.4,2.8-2.4h2.3
						c6.1,0,11.9,0,14.9,3.5C298.1,339.6,298.6,342.7,298,347z"/>
					<path class="st1" d="M52.3,315.2H18.4c-2.3,0-4.3,1.7-4.7,4L0,406.1c-0.3,1.7,1.1,3.3,2.8,3.3H19c2.3,0,4.3-1.7,4.7-4l3.7-23.4
						c0.4-2.3,2.3-4,4.7-4h10.7c22.3,0,35.2-10.8,38.6-32.2c1.5-9.4,0.1-16.7-4.3-21.9C72.2,318.2,63.7,315.2,52.3,315.2z M56.2,347
						c-1.9,12.2-11.1,12.2-20.1,12.2H31l3.6-22.7c0.2-1.4,1.4-2.4,2.8-2.4h2.3c6.1,0,11.9,0,14.9,3.5
						C56.4,339.6,56.9,342.7,56.2,347z"/>
					<path class="st1" d="M153.6,346.6h-16.2c-1.4,0-2.6,1-2.8,2.4l-0.7,4.5l-1.1-1.6c-3.5-5.1-11.3-6.8-19.2-6.8
						c-17.9,0-33.2,13.6-36.2,32.6c-1.6,9.5,0.7,18.6,6,24.9c5,5.8,12,8.3,20.4,8.3c14.5,0,22.5-9.3,22.5-9.3l-0.7,4.5
						c-0.3,1.7,1.1,3.3,2.8,3.3H143c2.3,0,4.3-1.7,4.7-4l8.8-55.6C156.7,348.1,155.4,346.6,153.6,346.6z M131,378.2
						c-1.6,9.3-8.9,15.5-18.3,15.5c-4.7,0-8.5-1.5-10.9-4.4c-2.4-2.8-3.3-6.9-2.5-11.4c1.5-9.2,8.9-15.6,18.2-15.6
						c4.6,0,8.3,1.5,10.8,4.4C130.7,369.6,131.7,373.7,131,378.2z"/>
					<path class="st0" d="M395.3,346.6h-16.2c-1.4,0-2.6,1-2.8,2.4l-0.7,4.5l-1.1-1.6c-3.5-5.1-11.3-6.8-19.2-6.8
						c-17.9,0-33.2,13.6-36.2,32.6c-1.6,9.5,0.7,18.6,6,24.9c5,5.8,12,8.3,20.4,8.3c14.5,0,22.5-9.3,22.5-9.3l-0.7,4.5
						c-0.3,1.7,1.1,3.3,2.8,3.3h14.6c2.3,0,4.3-1.7,4.7-4l8.8-55.6C398.4,348.1,397.1,346.6,395.3,346.6z M372.7,378.2
						c-1.6,9.3-8.9,15.5-18.3,15.5c-4.7,0-8.5-1.5-10.9-4.4c-2.4-2.8-3.3-6.9-2.5-11.4c1.5-9.2,8.9-15.6,18.2-15.6
						c4.6,0,8.3,1.5,10.8,4.4S373.4,373.7,372.7,378.2z"/>
					<path class="st1" d="M240.1,346.6h-16.3c-1.6,0-3,0.8-3.9,2.1l-22.5,33.1l-9.5-31.8c-0.6-2-2.4-3.4-4.5-3.4h-16
						c-1.9,0-3.3,1.9-2.7,3.7l18,52.7l-16.9,23.8c-1.3,1.9,0,4.5,2.3,4.5h16.3c1.5,0,3-0.8,3.9-2l54.2-78.3
						C243.7,349.1,242.3,346.6,240.1,346.6z"/>
					<path class="st0" d="M414.5,317.6l-13.9,88.5c-0.3,1.7,1.1,3.3,2.8,3.3h14c2.3,0,4.3-1.7,4.7-4l13.7-86.9
						c0.3-1.7-1.1-3.3-2.8-3.3h-15.7C415.9,315.2,414.7,316.2,414.5,317.6z"/>
				</g>
			</g>
		</g>
	</g>
	<g>
		<path class="st0" d="M323.6,71.5c3.4-21.9,0-36.8-11.9-50.2C298.7,6.5,275.1,0.1,245,0.1h-87.4c-6.2,0-11.4,4.5-12.4,10.6
			l-36.3,230.7c-0.7,4.6,2.8,8.7,7.4,8.7h54l-3.7,23.6c-0.6,4,2.5,7.6,6.5,7.6h45.5c5.4,0,10-3.9,10.8-9.2l0.4-2.3l8.6-54.3l0.6-3
			c0.8-5.3,5.4-9.2,10.8-9.2h6.8c44.1,0,78.6-17.9,88.6-69.7c4.2-21.6,2-39.7-9.1-52.4C332.6,77.3,328.5,74.1,323.6,71.5L323.6,71.5
			"/>
		<path class="st2" d="M323.6,71.5c3.4-21.9,0-36.8-11.9-50.2C298.7,6.5,275.1,0.1,245,0.1h-87.4c-6.2,0-11.4,4.5-12.4,10.6
			l-36.3,230.7c-0.7,4.6,2.8,8.7,7.4,8.7h54l13.6-85.9l-0.4,2.7c1-6.1,6.2-10.6,12.3-10.6h25.6c50.4,0,89.8-20.5,101.3-79.6
			C323,74.9,323.3,73.2,323.6,71.5"/>
		<path class="st1" d="M198.4,71.8c0.6-3.7,2.9-6.6,6.1-8.2c1.4-0.7,3-1.1,4.7-1.1h68.5c8.1,0,15.7,0.5,22.6,1.6
			c2,0.3,3.9,0.7,5.8,1.1s3.7,0.9,5.4,1.4c0.9,0.3,1.7,0.5,2.6,0.8c3.4,1.1,6.6,2.5,9.5,4c3.4-21.9,0-36.8-11.9-50.2
			C298.7,6.4,275.1,0,245,0h-87.4c-6.2,0-11.4,4.5-12.4,10.6l-36.3,230.8c-0.7,4.6,2.8,8.7,7.4,8.7h54l13.6-85.9L198.4,71.8z"/>
	</g>
</g>
<g>
	<g>
		<g>
			<g>
				<g>
					<path class="st3" d="M294.1,747.9h-33.9c-2.3,0-4.3,1.7-4.7,4l-13.7,86.9c-0.3,1.7,1.1,3.3,2.8,3.3H262c1.6,0,3-1.2,3.3-2.8
						l3.9-24.6c0.4-2.3,2.3-4,4.7-4h10.7c22.3,0,35.2-10.8,38.6-32.2c1.5-9.4,0.1-16.7-4.3-21.9
						C313.9,750.9,305.4,747.9,294.1,747.9z M298,779.7c-1.9,12.2-11.1,12.2-20.1,12.2h-5.1l3.6-22.7c0.2-1.4,1.4-2.4,2.8-2.4h2.3
						c6.1,0,11.9,0,14.9,3.5C298.1,772.3,298.6,775.4,298,779.7z"/>
					<path class="st4" d="M52.3,747.9H18.4c-2.3,0-4.3,1.7-4.7,4L0,838.8c-0.3,1.7,1.1,3.3,2.8,3.3H19c2.3,0,4.3-1.7,4.7-4l3.7-23.4
						c0.4-2.3,2.3-4,4.7-4h10.7c22.3,0,35.2-10.8,38.6-32.2c1.5-9.4,0.1-16.7-4.3-21.9C72.2,750.9,63.7,747.9,52.3,747.9z
						 M56.2,779.7c-1.9,12.2-11.1,12.2-20.1,12.2H31l3.6-22.7c0.2-1.4,1.4-2.4,2.8-2.4h2.3c6.1,0,11.9,0,14.9,3.5
						C56.4,772.3,56.9,775.4,56.2,779.7z"/>
					<path class="st4" d="M153.6,779.3h-16.2c-1.4,0-2.6,1-2.8,2.4l-0.7,4.5l-1.1-1.6c-3.5-5.1-11.3-6.8-19.2-6.8
						c-17.9,0-33.2,13.6-36.2,32.6c-1.6,9.5,0.7,18.6,6,24.9c5,5.8,12,8.3,20.4,8.3c14.5,0,22.5-9.3,22.5-9.3l-0.7,4.5
						c-0.3,1.7,1.1,3.3,2.8,3.3H143c2.3,0,4.3-1.7,4.7-4l8.8-55.6C156.7,780.8,155.4,779.3,153.6,779.3z M131,810.9
						c-1.6,9.3-8.9,15.5-18.3,15.5c-4.7,0-8.5-1.5-10.9-4.4c-2.4-2.8-3.3-6.9-2.5-11.4c1.5-9.2,8.9-15.6,18.2-15.6
						c4.6,0,8.3,1.5,10.8,4.4C130.7,802.3,131.7,806.4,131,810.9z"/>
					<path class="st3" d="M395.3,779.3h-16.2c-1.4,0-2.6,1-2.8,2.4l-0.7,4.5l-1.1-1.6c-3.5-5.1-11.3-6.8-19.2-6.8
						c-17.9,0-33.2,13.6-36.2,32.6c-1.6,9.5,0.7,18.6,6,24.9c5,5.8,12,8.3,20.4,8.3c14.5,0,22.5-9.3,22.5-9.3l-0.7,4.5
						c-0.3,1.7,1.1,3.3,2.8,3.3h14.6c2.3,0,4.3-1.7,4.7-4l8.8-55.6C398.4,780.8,397.1,779.3,395.3,779.3z M372.7,810.9
						c-1.6,9.3-8.9,15.5-18.3,15.5c-4.7,0-8.5-1.5-10.9-4.4c-2.4-2.8-3.3-6.9-2.5-11.4c1.5-9.2,8.9-15.6,18.2-15.6
						c4.6,0,8.3,1.5,10.8,4.4S373.4,806.4,372.7,810.9z"/>
					<path class="st4" d="M240.1,779.3h-16.3c-1.6,0-3,0.8-3.9,2.1l-22.5,33.1l-9.5-31.8c-0.6-2-2.4-3.4-4.5-3.4h-16
						c-1.9,0-3.3,1.9-2.7,3.7l18,52.7l-16.9,23.8c-1.3,1.9,0,4.5,2.3,4.5h16.3c1.5,0,3-0.8,3.9-2l54.2-78.3
						C243.7,781.8,242.3,779.3,240.1,779.3z"/>
					<path class="st3" d="M414.5,750.3l-13.9,88.5c-0.3,1.7,1.1,3.3,2.8,3.3h14c2.3,0,4.3-1.7,4.7-4l13.7-86.9
						c0.3-1.7-1.1-3.3-2.8-3.3h-15.7C415.9,747.9,414.7,748.9,414.5,750.3z"/>
				</g>
			</g>
		</g>
	</g>
	<g>
		<path class="st3" d="M323.6,504.2c3.4-21.9,0-36.8-11.9-50.2c-13-14.8-36.6-21.2-66.7-21.2h-87.4c-6.2,0-11.4,4.5-12.4,10.6
			l-36.3,230.7c-0.7,4.6,2.8,8.7,7.4,8.7h54l-3.7,23.6c-0.6,4,2.5,7.6,6.5,7.6h45.5c5.4,0,10-3.9,10.8-9.2l0.4-2.3l8.6-54.3l0.6-3
			c0.8-5.3,5.4-9.2,10.8-9.2h6.8c44.1,0,78.6-17.9,88.6-69.7c4.2-21.6,2-39.7-9.1-52.4C332.6,510,328.5,506.8,323.6,504.2
			L323.6,504.2"/>
		<path class="st5" d="M323.6,504.2c3.4-21.9,0-36.8-11.9-50.2c-13-14.8-36.6-21.2-66.7-21.2h-87.4c-6.2,0-11.4,4.5-12.4,10.6
			l-36.3,230.7c-0.7,4.6,2.8,8.7,7.4,8.7h54l13.6-85.9l-0.4,2.7c1-6.1,6.2-10.6,12.3-10.6h25.6c50.4,0,89.8-20.5,101.3-79.6
			C323,507.6,323.3,505.9,323.6,504.2"/>
		<path class="st4" d="M198.4,504.5c0.6-3.7,2.9-6.6,6.1-8.2c1.4-0.7,3-1.1,4.7-1.1h68.5c8.1,0,15.7,0.5,22.6,1.6
			c2,0.3,3.9,0.7,5.8,1.1c1.9,0.4,3.7,0.9,5.4,1.4c0.9,0.3,1.7,0.5,2.6,0.8c3.4,1.1,6.6,2.5,9.5,4c3.4-21.9,0-36.8-11.9-50.2
			c-13-14.8-36.6-21.2-66.7-21.2h-87.4c-6.2,0-11.4,4.5-12.4,10.6l-36.3,230.8c-0.7,4.6,2.8,8.7,7.4,8.7h54l13.6-85.9L198.4,504.5z"
			/>
	</g>
</g>
</svg>
